<?xml version="1.0" encoding="utf-8"?>
<!-- Generator: Adobe Illustrator 20.1.0, SVG Export Plug-In . SVG Version: 6.00 Build 0)  -->
<svg version="1.1" id="Layer_6" xmlns="http://www.w3.org/2000/svg" xmlns:xlink="http://www.w3.org/1999/xlink" x="0px" y="0px"
	 viewBox="0 0 2219.6 2494.3" style="enable-background:new 0 0 2219.6 2494.3;" xml:space="preserve">
<style type="text/css">
	.st0{fill:#E2CF94;}
</style>
<path class="st0" d="M294.1,2074.1c341.2,412,1343.3,626,1881.1-0.7c11.7-120.3-7.9-326.2-33.9-407.7
	c18.1-44.3,30.4-215.6-137.7-682.5c-10.6-107.4,13.7-204.6-120.7-452c32.4-63.1,45.4-395.6-67.1-461.3s-235,213.2-329.8,258.7
	c-152.7-13.1-371.6-9.5-429.2-37.8C971.4,260.6,931.4,59.8,806.4,0c-53,18.2-19.5,308.5-80.4,377C637.4,520.2,472,446.2,388.2,807.7
	c-47.5,171.9-152.2,511.8,24.5,730.1c-32.4,94.3-69,141.2-39.2,189.8c-10.2,32.4,1.9,134.2-37.6,230.1S294.1,2074.1,294.1,2074.1z"
	/>
</svg>
